<svg xmlns="http://www.w3.org/2000/svg" width="28" height="28" viewBox="0 0 28 28">
    <g fill="none" fill-rule="evenodd">
        <path fill="#FFF" d="M-960-683H480V481H-960z"/>
        <path fill="#3A7A10" d="M23.781 20.953l1.533 1.532-2.829 2.829-1.532-1.533A11.936 11.936 0 0 1 16 25.834V28h-4v-2.166a11.936 11.936 0 0 1-4.953-2.053l-1.532 1.533-2.829-2.829 1.533-1.532A11.936 11.936 0 0 1 2.166 16H0v-4h2.166a11.936 11.936 0 0 1 2.053-4.953L2.686 5.515l2.829-2.829L7.047 4.22A11.936 11.936 0 0 1 12 2.166V0h4v2.166a11.936 11.936 0 0 1 4.953 2.053l1.532-1.533 2.829 2.829-1.533 1.532A11.936 11.936 0 0 1 25.834 12H28v4h-2.166a11.936 11.936 0 0 1-2.053 4.953zM14 21a7 7 0 1 0 0-14 7 7 0 0 0 0 14z"/>
    </g>
</svg>
